<?xml version="1.0" standalone="no"?>
<!DOCTYPE svg PUBLIC "-//W3C//DTD SVG 20010904//EN"
 "http://www.w3.org/TR/2001/REC-SVG-20010904/DTD/svg10.dtd">
<svg version="1.0" xmlns="http://www.w3.org/2000/svg"
 width="480.000000pt" height="473.000000pt" viewBox="0 0 480.000000 473.000000"
 preserveAspectRatio="xMidYMid meet">

<g transform="translate(0.000000,473.000000) scale(0.100000,-0.100000)"
fill="#000000" stroke="none">
<path d="M2250 4500 c0 -10 22 -163 50 -341 27 -178 76 -501 109 -718 34 -219
66 -398 72 -402 7 -4 7 -8 1 -10 -6 -3 12 -148 49 -384 32 -209 59 -383 59
-386 0 -3 14 -6 31 -7 26 -1 30 3 26 18 -3 11 -1 20 4 22 5 2 0 59 -11 128
-58 373 -209 1350 -217 1405 -2 17 -15 98 -28 180 -13 83 -34 218 -45 300 -28
196 -25 189 -66 201 -30 10 -34 9 -34 -6z m94 -276 c5 -12 2 -15 -10 -10 -8 3
-21 6 -27 6 -7 0 -6 4 3 10 21 14 27 12 34 -6z"/>
<path d="M3399 2470 c-43 -49 -83 -83 -98 -86 -95 -20 -228 -92 -375 -204 -93
-71 -106 -78 -118 -63 -7 9 -32 25 -55 35 -32 14 -43 25 -43 41 0 12 -3 32 -6
44 -5 18 -10 20 -37 12 -18 -5 -49 -9 -70 -9 l-38 0 7 -46 c5 -39 2 -54 -22
-102 -27 -52 -29 -67 -31 -178 -4 -170 -1 -176 95 -198 173 -40 1186 -287
1189 -290 1 -1 0 -11 -3 -23 -6 -20 -22 -29 -112 -64 l-22 -9 20 -32 c11 -18
25 -50 31 -70 l10 -38 52 26 c47 25 62 27 187 28 120 1 148 5 253 35 133 38
117 39 350 -22 112 -30 130 -32 143 -20 33 34 -22 195 -131 379 l-45 76 31
129 c31 128 45 306 26 325 -5 5 -60 -10 -124 -32 l-117 -41 -110 56 c-117 60
-362 159 -509 207 -72 23 -91 34 -106 59 -29 48 -123 155 -137 155 -7 0 -45
-36 -85 -80z m138 -38 c26 -32 57 -70 68 -84 14 -18 55 -37 145 -68 176 -59
378 -143 492 -202 108 -56 102 -56 226 -10 l82 31 0 -67 c-1 -70 -3 -84 -41
-245 l-24 -99 24 -41 c99 -175 161 -314 161 -363 0 -9 -23 -6 -87 11 -49 13
-107 29 -130 35 -30 8 -41 15 -37 25 11 29 -25 26 -133 -8 -273 -89 -453 -89
-453 0 0 29 24 77 61 123 16 19 29 40 29 47 0 24 -39 13 -60 -17 -12 -16 -28
-30 -36 -30 -17 0 -1256 299 -1261 304 -2 2 -6 41 -10 87 -7 100 9 189 40 225
24 27 86 41 131 30 36 -9 94 -62 117 -108 11 -21 26 -38 34 -38 20 0 19 40 -2
70 -16 23 -16 24 33 68 118 105 339 231 406 232 20 0 43 18 95 75 37 41 71 74
75 75 4 0 29 -26 55 -58z"/>
<path d="M3157 1952 c-10 -10 -17 -33 -17 -51 0 -25 5 -34 28 -42 57 -23 102
34 68 87 -20 29 -56 32 -79 6z"/>
<path d="M3315 1880 c-8 -13 21 -66 40 -74 9 -3 32 -6 50 -6 23 0 43 -9 61
-25 33 -31 97 -32 102 -2 3 13 -3 17 -26 17 -23 0 -37 9 -59 36 -26 32 -32 35
-51 25 -35 -18 -62 -13 -72 14 -10 25 -34 33 -45 15z"/>
<path d="M3827 1732 c-24 -27 -21 -59 8 -78 23 -15 27 -15 50 0 29 19 32 42 9
74 -18 27 -45 28 -67 4z"/>
<path d="M3595 1260 c-22 -11 -123 -56 -225 -101 -102 -44 -223 -98 -270 -119
-47 -21 -204 -91 -350 -155 -146 -64 -346 -153 -445 -197 -180 -80 -296 -132
-559 -247 -77 -33 -144 -65 -149 -70 -4 -4 7 -17 27 -29 l36 -21 157 70 c87
39 176 79 198 89 22 11 52 23 66 29 24 9 364 159 1282 566 302 134 343 159
317 190 -16 19 -36 18 -85 -5z"/>
</g>
</svg>
