<?xml version="1.0" standalone="no"?>
<!DOCTYPE svg PUBLIC "-//W3C//DTD SVG 20010904//EN"
 "http://www.w3.org/TR/2001/REC-SVG-20010904/DTD/svg10.dtd">
<svg version="1.0" xmlns="http://www.w3.org/2000/svg"
 width="480.000000pt" height="473.000000pt" viewBox="0 0 480.000000 473.000000"
 preserveAspectRatio="xMidYMid meet">

<g transform="translate(0.000000,473.000000) scale(0.100000,-0.100000)"
fill="#000000" stroke="none">
<path d="M3694 4152 l-32 -27 29 -170 c17 -93 32 -188 35 -210 3 -22 14 -94
25 -160 11 -66 26 -160 34 -210 78 -497 227 -1404 232 -1420 4 -11 6 -23 5
-27 -2 -10 48 -2 59 9 7 7 7 30 0 69 -6 33 -24 145 -41 249 -40 252 -151 940
-200 1240 -21 132 -53 328 -70 435 -17 107 -34 207 -38 222 l-7 26 -31 -26z"/>
<path d="M3399 2470 c-43 -49 -83 -83 -98 -86 -43 -9 -152 -56 -213 -91 -228
-133 -568 -468 -614 -605 -13 -41 -23 -52 -70 -79 l-55 -31 31 -34 c16 -19 33
-46 36 -59 8 -32 19 -31 77 9 l48 33 52 -14 c100 -28 256 -2 409 65 l63 28
380 -93 c209 -52 486 -116 615 -143 312 -65 353 -74 503 -113 112 -30 130 -32
143 -20 33 34 -22 195 -131 379 l-46 77 32 126 c31 126 45 308 26 327 -5 5
-60 -10 -124 -32 l-115 -40 -128 65 c-71 36 -131 63 -135 60 -9 -10 6 -59 18
-59 6 0 62 -25 125 -56 71 -35 122 -54 135 -51 12 2 59 18 105 35 l82 31 0
-67 c-1 -70 -3 -84 -41 -245 l-24 -99 24 -41 c99 -175 161 -314 161 -363 0 -9
-44 -1 -146 26 -81 22 -228 55 -328 76 -99 20 -188 42 -196 50 -11 11 -14 43
-15 138 0 110 2 128 21 153 30 41 87 67 130 58 39 -7 113 -69 142 -117 9 -15
22 -28 29 -28 64 0 -60 160 -143 184 -17 5 -23 17 -27 52 -6 55 -8 57 -41 44
-15 -5 -45 -10 -67 -10 -43 0 -45 -5 -30 -72 7 -30 5 -40 -10 -54 -39 -35 -52
-95 -47 -224 3 -84 1 -120 -7 -120 -6 0 -45 9 -86 19 -41 11 -235 59 -433 106
l-358 87 -67 -30 c-178 -81 -353 -98 -444 -45 -29 17 -32 24 -31 64 0 58 47
131 157 246 235 246 488 427 627 449 34 6 52 19 111 82 69 74 70 74 90 56 12
-11 44 -49 72 -86 27 -38 54 -68 59 -68 8 0 241 -84 291 -105 16 -7 18 -4 15
21 -3 28 -9 31 -150 79 -137 47 -148 52 -173 89 -42 61 -118 146 -131 146 -7
0 -45 -36 -85 -80z"/>
<path d="M3157 1952 c-10 -10 -17 -33 -17 -51 0 -25 5 -34 28 -42 57 -23 102
34 68 87 -20 29 -56 32 -79 6z"/>
<path d="M3315 1880 c-8 -13 21 -66 40 -74 9 -3 32 -6 50 -6 23 0 43 -9 61
-25 33 -31 97 -32 102 -2 3 13 -3 17 -26 17 -23 0 -37 9 -59 36 -26 32 -32 35
-51 25 -35 -18 -62 -13 -72 14 -10 25 -34 33 -45 15z"/>
<path d="M3827 1732 c-24 -27 -21 -59 8 -78 23 -15 27 -15 51 1 22 14 25 22
20 48 -10 49 -49 63 -79 29z"/>
<path d="M2360 1521 c0 -5 -10 -8 -22 -8 -14 1 -284 -155 -662 -383 -351 -212
-662 -398 -689 -413 -52 -30 -171 -104 -219 -138 -15 -10 -30 -19 -33 -19 -9
0 -277 -160 -293 -175 -9 -8 -11 -24 -7 -48 l7 -35 96 58 c362 215 1839 1104
1848 1111 9 7 9 16 0 34 -11 24 -26 34 -26 16z m-1677 -1032 c4 -16 3 -18 -9
-8 -7 6 -11 15 -8 20 8 13 11 11 17 -12z"/>
</g>
</svg>
